<?xml version="1.0" encoding="UTF-8"?>
<svg id="Layer_1" xmlns="http://www.w3.org/2000/svg" version="1.1" viewBox="0 0 1773.04 284.04">
  <!-- Generator: Adobe Illustrator 29.7.1, SVG Export Plug-In . SVG Version: 2.1.1 Build 8)  -->
  <defs>
    <style>
      .st0 {
        fill: #000e35;
      }

      .st1 {
        fill: #fff;
      }

      .st2 {
        fill: #f7f5ee;
      }

      .st3 {
        fill: #600;
      }

      .st4 {
        fill: #0043ff;
      }

      .st5 {
        fill: #ff1200;
      }
    </style>
  </defs>
  <g id="RE">
    <path id="R" d="M1287.95-1944.61c-4.65,4.34-12.8,6.51-24.53,6.51h-27.47v-51.32h26.63c11.89,0,20.27,2.1,25.07,6.25,4.84,4.15,7.24,10.48,7.24,18.97s-2.32,15.24-6.93,19.58M1315.31-1908.91c20.76-11.89,31.16-31.09,31.16-57.53,0-19.66-6.4-35.2-19.12-46.63-12.76-11.43-33.14-17.14-61.07-17.14h-81.37v202.37h51.05v-70.02h31.43l34.02,70.02h56.12l-42.21-81.07Z"/>
    <polygon id="E" points="1497.26 -1987.7 1497.26 -2030.21 1357.52 -2030.21 1357.52 -1827.84 1432.64 -1827.84 1454.76 -1870.36 1410.81 -1870.36 1410.81 -1909.18 1474.97 -1909.18 1497.26 -1952 1410.81 -1952 1410.81 -1987.7 1497.26 -1987.7"/>
  </g>
  <path id="MAX_x5F_regular" d="M1802.51-1985.44l22.66,75.69h-45.33l22.66-75.69ZM2001.61-2030.21l-34.31,61.8-34.56-61.8h-60.37l60.37,96.08-41.09,66.72-55.42-162.8h-65.45l-58.69,171.78v-171.78h-62.06l-45.07,136.89-45.07-136.89h-21.93l-40.71,78.21v124.16h48.46v-119.61l38.85,119.61h38.82l39.09-120.15v120.15h92.72l12.19-38.81h70.29l12.15,38.81h75.52l39.4-70.86,41.95,70.86h60.65s-68.27-104.31-68.27-104.31l60.34-98.06h-57.8Z"/>
  <g id="SIMPLY_x5F_S">
    <path id="S" class="st5" d="M2198.93-1869.68c0-3.7-1.17-6.75-3.5-9.15-2.33-2.4-6.79-4.22-13.37-5.45l-19.54-3.7c-16.18-3.15-28.21-8.19-36.09-15.12-7.89-6.92-11.82-16.69-11.82-29.31,0-14.81,5.41-26.19,16.25-34.14,10.83-7.95,25.57-11.93,44.21-11.93s33.11,3.91,42.98,11.72c9.87,7.81,15.56,18.37,17.07,31.67l-38.05,4.11c-1.51-6.03-3.94-10.39-7.3-13.06-3.36-2.67-8.61-4.01-15.73-4.01s-12.58,1.2-15.94,3.6c-3.36,2.4-5.04,5.59-5.04,9.56s1.23,6.79,3.7,8.84c2.47,2.06,6.85,3.7,13.16,4.94l19.95,3.91c16.86,3.43,29.06,8.64,36.61,15.63,7.54,6.99,11.31,16.8,11.31,29.41,0,14.95-5.28,26.67-15.84,35.17-10.56,8.5-25.98,12.75-46.27,12.75s-34.89-4.18-45.86-12.54c-10.97-8.36-17.14-21.04-18.51-38.05h38.87c1.1,6.99,3.87,12.1,8.33,15.32,4.45,3.22,10.86,4.83,19.23,4.83,7.68,0,13.13-1.34,16.35-4.01,3.22-2.67,4.83-6.34,4.83-11Z"/>
    <polygon id="I" class="st5" points="2290.98 -1974.76 2251.7 -1974.76 2251.7 -1827.93 2263.38 -1827.93 2290.98 -1880.95 2290.98 -1974.76"/>
    <polygon id="M" class="st5" points="2386.39 -1875.43 2353.69 -1974.76 2339.8 -1974.76 2308.24 -1914.13 2308.24 -1827.93 2343.41 -1827.93 2343.41 -1914.71 2371.59 -1827.93 2399.76 -1827.93 2428.14 -1915.12 2428.14 -1827.93 2464.13 -1827.93 2464.13 -1974.76 2419.09 -1974.76 2386.39 -1875.43"/>
    <path id="P" class="st5" d="M2481.82-1974.76h54.91c20.7,0,35.68,4.25,44.93,12.75,9.25,8.5,13.88,20.64,13.88,36.4s-4.66,28.42-13.98,37.12c-9.32,8.71-24.2,13.06-44.63,13.06h-17.27v47.51h-37.84v-146.83ZM2559.76-1925.2c0-6.58-1.68-11.34-5.04-14.29-3.36-2.95-9.29-4.42-17.79-4.42h-17.27v37.63h17.27c8.64,0,14.6-1.57,17.89-4.73,3.29-3.15,4.94-7.88,4.94-14.19Z"/>
    <path id="L" class="st5" d="M2610.07-1974.76h39.28l1.29,112.9h64.11l-3.7,33.93h-100.97v-146.83Z"/>
    <path id="Y" class="st5" d="M2733.3-1883.86l-48.94-90.9h42.16l26.73,58.61,27.35-58.61h40.72l-48.53,90.9v55.94h-39.49v-55.94Z"/>
  </g>
  <g id="Remax_Icon">
    <path id="bg" class="st1" d="M1112.31-1963.62c-2.43,0-4.53-1.46-6.26-2.9-11.35-9.76-31.45-27.46-39.34-37.09-6.82-8.3-12.7-15.97-15.63-25.71-1.69-5.52-2.55-11.32-2.55-17.21,0-7.73,1.47-15.26,4.37-22.4,9.63-23.73,32.95-39.06,59.41-39.06s49.78,15.33,59.41,39.06c2.9,7.15,4.37,14.68,4.37,22.39,0,5.86-.86,11.66-2.55,17.22-2.93,9.72-8.82,17.39-15.64,25.7-7.9,9.63-27.99,27.32-39.25,37.02-1.83,1.5-3.94,2.96-6.34,2.96"/>
    <path id="white" class="st2" d="M1168.46-2067.55h-112.78c-2.66,6.55-4.13,13.68-4.13,21.14,0,5.64.83,11.1,2.4,16.25h116.23c1.57-5.16,2.4-10.61,2.4-16.25,0-7.45-1.47-14.59-4.13-21.14"/>
    <path id="dark_red" class="st3" d="M1112.07-2104.56c-25.67,0-47.59,15.35-56.39,37.01h112.78c-8.8-21.66-30.74-37.01-56.39-37.01"/>
    <path id="dark_blue" class="st0" d="M1053.95-2030.16c2.84,9.42,8.92,17.11,15.1,24.65,8.24,10.04,30.65,29.58,39.42,37.12h0c1.18.98,2.55,1.96,3.59,1.96s2.4-.97,3.59-1.95h0c8.77-7.54,31.18-27.08,39.41-37.13,6.18-7.54,12.26-15.23,15.11-24.65h-116.23Z"/>
    <path id="red" class="st5" d="M1168.46-2067.55h-56.39v-26.9c0-5.74,5.15-10.17,10.8-9.19,20.89,3.62,38.05,17.53,45.59,36.09"/>
    <path id="blue" class="st4" d="M1170.19-2030.16c-2.85,9.42-8.92,17.11-15.11,24.65-8.24,10.04-30.65,29.58-39.41,37.12h0c-1.19.98-2.56,1.96-3.59,1.96v-54.05c0-5.35,4.33-9.67,9.66-9.67h48.45Z"/>
  </g>
  <g id="RE1" data-name="RE">
    <path id="R1" data-name="R" d="M239.43,163.37c-4.65,4.34-12.8,6.51-24.53,6.51h-27.47v-51.32h26.63c11.89,0,20.27,2.1,25.07,6.25,4.84,4.15,7.24,10.48,7.24,18.97s-2.32,15.24-6.93,19.58M266.79,199.07c20.76-11.89,31.16-31.09,31.16-57.53,0-19.66-6.4-35.2-19.12-46.63-12.76-11.43-33.14-17.14-61.07-17.14h-81.37v202.37h51.05v-70.02h31.43l34.02,70.02h56.12l-42.21-81.07Z"/>
    <polygon id="E1" data-name="E" points="448.74 120.28 448.74 77.77 309 77.77 309 280.14 384.12 280.14 406.25 237.62 362.3 237.62 362.3 198.8 426.45 198.8 448.74 155.98 362.3 155.98 362.3 120.28 448.74 120.28"/>
  </g>
  <path id="MAX_x5F_regular1" data-name="MAX_x5F_regular" d="M753.99,122.54l22.66,75.69h-45.33l22.66-75.69ZM953.09,77.77l-34.31,61.8-34.56-61.8h-60.37l60.37,96.08-41.09,66.72-55.42-162.8h-65.45l-58.69,171.78V77.77h-62.06l-45.07,136.89-45.07-136.89h-21.93l-40.71,78.21v124.16h48.46v-119.61l38.85,119.61h38.82l39.09-120.15v120.15h92.72l12.19-38.81h70.29l12.15,38.81h75.52l39.4-70.86,41.95,70.86h60.65s-68.27-104.31-68.27-104.31l60.34-98.06h-57.8Z"/>
  <g id="SIMPLY_x5F_S1" data-name="SIMPLY_x5F_S">
    <path id="S1" data-name="S" class="st5" d="M1150.41,238.3c0-3.7-1.17-6.75-3.5-9.15-2.33-2.4-6.79-4.22-13.37-5.45l-19.54-3.7c-16.18-3.15-28.21-8.19-36.09-15.12-7.89-6.92-11.82-16.69-11.82-29.31,0-14.81,5.41-26.19,16.25-34.14,10.83-7.95,25.57-11.93,44.21-11.93s33.11,3.91,42.98,11.72c9.87,7.81,15.56,18.37,17.07,31.67l-38.05,4.11c-1.51-6.03-3.94-10.39-7.3-13.06-3.36-2.67-8.61-4.01-15.73-4.01s-12.58,1.2-15.94,3.6c-3.36,2.4-5.04,5.59-5.04,9.56s1.23,6.79,3.7,8.84c2.47,2.06,6.85,3.7,13.16,4.94l19.95,3.91c16.86,3.43,29.06,8.64,36.61,15.63,7.54,6.99,11.31,16.8,11.31,29.41,0,14.95-5.28,26.67-15.84,35.17-10.56,8.5-25.98,12.75-46.27,12.75s-34.89-4.18-45.86-12.54c-10.97-8.36-17.14-21.04-18.51-38.05h38.87c1.1,6.99,3.87,12.1,8.33,15.32,4.45,3.22,10.86,4.83,19.23,4.83,7.68,0,13.13-1.34,16.35-4.01,3.22-2.67,4.83-6.34,4.83-11Z"/>
    <polygon id="I1" data-name="I" class="st5" points="1242.46 133.22 1203.18 133.22 1203.18 280.05 1214.86 280.05 1242.46 227.03 1242.46 133.22"/>
    <polygon id="M1" data-name="M" class="st5" points="1337.87 232.55 1305.18 133.22 1291.28 133.22 1259.73 193.85 1259.73 280.05 1294.89 280.05 1294.89 193.27 1323.07 280.05 1351.24 280.05 1379.62 192.85 1379.62 280.05 1415.61 280.05 1415.61 133.22 1370.57 133.22 1337.87 232.55"/>
    <path id="P1" data-name="P" class="st5" d="M1433.3,133.22h54.91c20.7,0,35.68,4.25,44.93,12.75,9.25,8.5,13.88,20.64,13.88,36.4s-4.66,28.42-13.98,37.12c-9.32,8.71-24.2,13.06-44.63,13.06h-17.27v47.51h-37.84v-146.83ZM1511.25,182.78c0-6.58-1.68-11.34-5.04-14.29-3.36-2.95-9.29-4.42-17.79-4.42h-17.27v37.63h17.27c8.64,0,14.6-1.57,17.89-4.73,3.29-3.15,4.94-7.88,4.94-14.19Z"/>
    <path id="L1" data-name="L" class="st5" d="M1561.55,133.22h39.28l1.29,112.9h64.11l-3.7,33.93h-100.97v-146.83Z"/>
    <path id="Y1" data-name="Y" class="st5" d="M1684.79,224.11l-48.94-90.9h42.16l26.73,58.61,27.35-58.61h40.72l-48.53,90.9v55.94h-39.49v-55.94Z"/>
  </g>
  <g id="Remax_Icon1" data-name="Remax_Icon">
    <path id="bg1" data-name="bg" class="st1" d="M63.79,144.36c-2.43,0-4.53-1.46-6.26-2.9-11.35-9.76-31.45-27.46-39.34-37.09-6.82-8.3-12.7-15.97-15.63-25.71-1.69-5.52-2.55-11.32-2.55-17.21,0-7.73,1.47-15.26,4.37-22.4C14,15.33,37.32,0,63.78,0s49.78,15.33,59.41,39.06c2.9,7.15,4.37,14.68,4.37,22.39,0,5.86-.86,11.66-2.55,17.22-2.93,9.72-8.82,17.39-15.64,25.7-7.9,9.63-27.99,27.32-39.25,37.02-1.83,1.5-3.94,2.96-6.34,2.96"/>
    <path id="white1" data-name="white" class="st2" d="M119.94,40.43H7.16c-2.66,6.55-4.13,13.68-4.13,21.14,0,5.64.83,11.1,2.4,16.25h116.23c1.57-5.16,2.4-10.61,2.4-16.25,0-7.45-1.47-14.59-4.13-21.14"/>
    <path id="dark_red1" data-name="dark_red" class="st3" d="M63.55,3.42C37.88,3.42,15.96,18.77,7.16,40.43h112.78C111.14,18.77,89.21,3.42,63.55,3.42"/>
    <path id="dark_blue1" data-name="dark_blue" class="st0" d="M5.44,77.82c2.84,9.42,8.92,17.11,15.1,24.65,8.24,10.04,30.65,29.58,39.42,37.12h0c1.18.98,2.55,1.96,3.59,1.96s2.4-.97,3.59-1.95h0c8.77-7.54,31.18-27.08,39.41-37.13,6.18-7.54,12.26-15.23,15.11-24.65H5.44Z"/>
    <path id="red1" data-name="red" class="st5" d="M119.94,40.43h-56.39V13.53c0-5.74,5.15-10.17,10.8-9.19,20.89,3.62,38.05,17.53,45.59,36.09"/>
    <path id="blue1" data-name="blue" class="st4" d="M121.67,77.82c-2.85,9.42-8.92,17.11-15.11,24.65-8.24,10.04-30.65,29.58-39.41,37.12h0c-1.19.98-2.56,1.96-3.59,1.96v-54.05c0-5.35,4.33-9.67,9.66-9.67h48.45Z"/>
  </g>
</svg>