<?xml version="1.0" encoding="UTF-8"?>
<svg id="Layer_2" xmlns="http://www.w3.org/2000/svg" version="1.1" viewBox="0 0 500 500">
  <!-- Generator: Adobe Illustrator 29.7.1, SVG Export Plug-In . SVG Version: 2.1.1 Build 8)  -->
  <defs>
    <style>
      .st0 {
        fill: #fff;
      }

      .st1 {
        fill: #2867b2;
      }
    </style>
  </defs>
  <rect class="st1" width="500" height="500"/>
  <path class="st0" d="M428.64,239.17c-1.06-4.28-.92-9.04-1.49-13.49-10.12-78.68-74.35-142.7-152.9-152.96-4.44-.58-9.21-.43-13.48-1.49h-20.9C87.4,79.71,15.43,267.44,124.3,376.03c108.71,108.44,295.88,36.34,304.34-115.95.38-6.92-.28-13.98,0-20.91ZM133.62,143.7c16.43-17.45,36.32-31.95,58.87-40.4-12.21,16.8-21.6,35.13-27.94,54.96l-36.14-7.59,5.21-6.97ZM112.97,172.51c.7-1.18,1.79-3.64,3.19-3.69l42.17,9.76c-3.11,20.08-7.19,40.15-6.93,60.6h-57.82c1.12-22.39,7.87-47.34,19.39-66.66ZM115.49,328.42c-1.31,0-1.57-.17-2.34-1.17-1.71-2.21-5.6-10.92-6.94-13.96-7.27-16.54-11.97-35.14-12.64-53.21h57.82c.3,14.96,1.88,30,4.37,44.76.43,2.56,3.44,12.28,2.3,13.83l-42.57,9.76ZM133.96,355.91c-1.81-2.03-4.9-5.5-6.25-7.69-.34-.55-1.02-.63-.7-1.73l36.96-7.34,14.23,33.14,14.99,23.67c-21.87-7.85-43.72-22.69-59.23-40.05ZM239.86,404.32c-29.33-9.78-44.26-40.88-54.34-67.93l24.74-2.44,29.6-.7v71.08ZM239.86,312.34c-20.28-.4-40.46,1.49-60.58,3.45-3.65-18.35-6.82-36.94-6.99-55.72h67.57v52.26ZM239.86,239.17h-67.57c-.01-19.25,3.41-38.28,7-57.1l60.57,4.14v52.96ZM239.86,165.31l-54.34-3.84c10.28-27,25.07-57.95,54.34-67.93v71.77ZM372.9,151.03c0,.94-16.02,4.48-18.07,4.9-6.18,1.28-12.52,2.3-18.78,3.06-5.78-20.19-15.75-38.73-27.91-55.69,25.32,9.72,47.98,26.47,64.77,47.73ZM260.76,93.54c29.27,9.98,44.06,40.93,54.35,67.93,0,.46-3.13.98-3.85,1.05-8.13.9-17.61,1.64-25.78,2.09-8.2.45-16.53-.14-24.72.7v-71.77ZM260.76,186.22l60.53-3.41c4.01,18.5,6.89,37.39,7.04,56.37h-67.57v-52.96ZM260.76,260.08h67.57c-.51,18.88-2.78,37.9-7.63,56.15-19.88-2.21-39.88-4.14-59.94-3.89v-52.26ZM260.76,404.32v-71.08c18.19.03,36.3,1.43,54.33,3.49-10.34,26.9-25.01,57.84-54.33,67.59ZM307.44,395.96l14.99-23.67c5.36-10.53,10.1-21.45,13.59-32.77l36.89,8.71c-16.92,21.25-39.77,38.58-65.46,47.73ZM385.74,329.8l-44.18-10.5c4.8-19.31,7.21-39.32,7.67-59.22h57.82c-.93,24.56-8.87,48.7-21.31,69.72ZM349.23,239.17c.15-20.2-3.55-40.11-6.95-59.91l43.8-9.73c11.84,21.3,20.18,45.04,20.96,69.64h-57.82Z"/>
</svg>